<svg width="28" height="26" xmlns="http://www.w3.org/2000/svg" xmlns:xlink="http://www.w3.org/1999/xlink" overflow="hidden"><defs><clipPath id="clip0"><rect x="177" y="1570" width="28" height="26"/></clipPath></defs><g clip-path="url(#clip0)" transform="translate(-177 -1570)"><path d="M20.5833 20.5833 7.04167 20.5833 7.04167 5.41667 20.5833 5.41667 20.5833 20.5833ZM5.41667 3.79167 5.41667 5.41667 5.06458 5.41667C4.63125 5.44375 4.33333 5.79583 4.33333 6.22917 4.30625 6.6625 4.63125 7.01458 5.06458 7.04167L5.41667 7.04167 5.41667 8.125 5.06458 8.125C4.60417 8.125 4.25208 8.47708 4.25208 8.9375 4.25208 9.39792 4.60417 9.75 5.06458 9.75L5.41667 9.75 5.41667 10.8333 5.06458 10.8333C4.60417 10.8333 4.25208 11.1854 4.25208 11.6458 4.25208 12.1063 4.60417 12.4583 5.06458 12.4583L5.41667 12.4583 5.41667 13.5417 5.06458 13.5417C4.60417 13.5417 4.25208 13.8938 4.25208 14.3542 4.25208 14.8146 4.60417 15.1667 5.06458 15.1667L5.41667 15.1667 5.41667 16.25 5.06458 16.25C4.60417 16.25 4.25208 16.6021 4.25208 17.0625 4.25208 17.5229 4.60417 17.875 5.06458 17.875L5.41667 17.875 5.41667 18.9583 5.06458 18.9583C4.60417 18.9583 4.25208 19.3104 4.25208 19.7708 4.25208 20.2313 4.60417 20.5833 5.06458 20.5833L5.41667 20.5833 5.41667 22.2083 22.2083 22.2083 22.2083 3.79167 5.41667 3.79167Z" transform="matrix(1.07692 0 0 1 177 1570)"/><path d="M10.8333 15.7083C11.4292 15.7083 11.9167 16.1958 11.9167 16.7917 11.9167 17.3875 11.4292 17.875 10.8333 17.875 10.2375 17.875 9.75 17.3875 9.75 16.7917 9.75 16.1958 10.2375 15.7083 10.8333 15.7083ZM10.8333 18.9583C11.9167 18.9583 12.8375 18.1458 12.9729 17.0625 13.1083 15.9792 12.4313 14.9771 11.375 14.7063L11.375 14.0833C11.375 13.7854 11.6188 13.5417 11.9167 13.5417L15.7083 13.5417C16.6021 13.5417 17.3333 12.8104 17.3333 11.9167L17.3333 8.88333 18.0375 9.5875C18.2542 9.80417 18.5792 9.80417 18.7958 9.5875 19.0125 9.37083 19.0125 9.04583 18.7958 8.82917L17.1708 7.20417C17.0625 7.09583 16.9271 7.04167 16.7917 7.04167 16.6562 7.04167 16.5208 7.09583 16.4125 7.20417L14.7875 8.82917C14.5708 9.04583 14.5708 9.37083 14.7875 9.5875 15.0042 9.80417 15.3292 9.80417 15.5458 9.5875L16.25 8.88333 16.25 11.9167C16.25 12.2146 16.0063 12.4583 15.7083 12.4583L11.9167 12.4583C11.0229 12.4583 10.2917 13.1896 10.2917 14.0833L10.2917 14.7063C9.23542 14.9771 8.55833 16.0063 8.69375 17.0625 8.82917 18.1458 9.75 18.9583 10.8333 18.9583Z" transform="matrix(1.07692 0 0 1 177 1570)"/><path d="M18.7958 14.7875C18.6875 14.6792 18.5521 14.625 18.4167 14.625 18.2812 14.625 18.1458 14.6792 18.0375 14.7875L16.7917 16.0333 15.5458 14.7875C15.3292 14.5708 15.0042 14.5708 14.7875 14.7875 14.5708 15.0042 14.5708 15.3292 14.7875 15.5458L16.0333 16.7917 14.7875 18.0375C14.5708 18.2542 14.5708 18.5792 14.7875 18.7958 15.0042 19.0125 15.3292 19.0125 15.5458 18.7958L16.7917 17.55 18.0375 18.7958C18.2542 19.0125 18.5792 19.0125 18.7958 18.7958 19.0125 18.5792 19.0125 18.2542 18.7958 18.0375L17.55 16.7917 18.7958 15.5458C19.0125 15.3292 19.0125 15.0042 18.7958 14.7875Z" transform="matrix(1.07692 0 0 1 177 1570)"/><path d="M8.82917 11.2125C8.9375 11.3208 9.07292 11.375 9.20833 11.375 9.34375 11.375 9.47917 11.3208 9.5875 11.2125L10.8333 9.96667 12.0792 11.2125C12.2958 11.4292 12.6208 11.4292 12.8375 11.2125 13.0542 10.9958 13.0542 10.6708 12.8375 10.4542L11.5917 9.20833 12.8375 7.9625C13.0542 7.74583 13.0542 7.42083 12.8375 7.20417 12.6208 6.9875 12.2958 6.9875 12.0792 7.20417L10.8333 8.45 9.5875 7.20417C9.37083 6.9875 9.04583 6.9875 8.82917 7.20417 8.6125 7.42083 8.6125 7.74583 8.82917 7.9625L10.075 9.20833 8.82917 10.4542C8.6125 10.6708 8.6125 10.9958 8.82917 11.2125Z" transform="matrix(1.07692 0 0 1 177 1570)"/></g></svg>